<mxfile host="e353d945-298e-40eb-ad08-dbff6804df0f" modified="2021-06-06T19:22:06.919Z" agent="5.0 (X11; Linux x86_64) AppleWebKit/537.36 (KHTML, like Gecko) code-oss/1.55.2 Chrome/87.0.4280.141 Electron/11.4.6 Safari/537.36" etag="MiLeBJF7nuhNgYotUpsL" version="13.6.5">
    <diagram id="6a731a19-8d31-9384-78a2-239565b7b9f0" name="Page-1">
        <mxGraphModel dx="1613" dy="1177" grid="1" gridSize="10" guides="1" tooltips="1" connect="1" arrows="1" fold="1" page="1" pageScale="1" pageWidth="827" pageHeight="1169" background="#ffffff" math="0" shadow="0">
            <root>
                <mxCell id="0"/>
                <mxCell id="1" parent="0"/>
                <mxCell id="2sx76Hz4cDRCvancHUNZ-2293" value="" style="group;fontColor=#000000;" parent="1" vertex="1" connectable="0">
                    <mxGeometry x="80" y="110" width="1180" height="620" as="geometry"/>
                </mxCell>
                <mxCell id="2sx76Hz4cDRCvancHUNZ-2275" value="" style="rounded=1;whiteSpace=wrap;html=1;fillColor=#f5f5f5;strokeColor=#666666;fontColor=#333333;" parent="2sx76Hz4cDRCvancHUNZ-2293" vertex="1">
                    <mxGeometry width="480" height="620" as="geometry"/>
                </mxCell>
                <mxCell id="2sx76Hz4cDRCvancHUNZ-2266" value="" style="group" parent="2sx76Hz4cDRCvancHUNZ-2293" vertex="1" connectable="0">
                    <mxGeometry x="320" y="110" width="120" height="480" as="geometry"/>
                </mxCell>
                <mxCell id="2sx76Hz4cDRCvancHUNZ-2267" value="" style="rounded=0;whiteSpace=wrap;html=1;fillColor=#dae8fc;strokeColor=#6c8ebf;" parent="2sx76Hz4cDRCvancHUNZ-2266" vertex="1">
                    <mxGeometry width="120" height="480" as="geometry"/>
                </mxCell>
                <mxCell id="2sx76Hz4cDRCvancHUNZ-2268" value="&lt;div&gt;/dev/sdX&lt;/div&gt;" style="shadow=0;dashed=0;html=1;strokeColor=none;fillColor=#4495D1;labelPosition=center;verticalLabelPosition=bottom;verticalAlign=top;align=center;outlineConnect=0;shape=mxgraph.veeam.2d.hard_drive;fontColor=#000000;" parent="2sx76Hz4cDRCvancHUNZ-2266" vertex="1">
                    <mxGeometry x="40" y="20" width="40" height="48" as="geometry"/>
                </mxCell>
                <mxCell id="2sx76Hz4cDRCvancHUNZ-2272" value="BIOS Boot" style="rounded=1;whiteSpace=wrap;html=1;" parent="2sx76Hz4cDRCvancHUNZ-2266" vertex="1">
                    <mxGeometry y="100" width="120" height="20" as="geometry"/>
                </mxCell>
                <mxCell id="2sx76Hz4cDRCvancHUNZ-2263" value="" style="group" parent="2sx76Hz4cDRCvancHUNZ-2293" vertex="1" connectable="0">
                    <mxGeometry x="180" y="110" width="260" height="480" as="geometry"/>
                </mxCell>
                <mxCell id="2sx76Hz4cDRCvancHUNZ-2264" value="" style="rounded=0;whiteSpace=wrap;html=1;fillColor=#dae8fc;strokeColor=#6c8ebf;" parent="2sx76Hz4cDRCvancHUNZ-2263" vertex="1">
                    <mxGeometry width="120" height="480" as="geometry"/>
                </mxCell>
                <mxCell id="2sx76Hz4cDRCvancHUNZ-2265" value="&lt;div&gt;/dev/sdb&lt;/div&gt;" style="shadow=0;dashed=0;html=1;strokeColor=none;fillColor=#4495D1;labelPosition=center;verticalLabelPosition=bottom;verticalAlign=top;align=center;outlineConnect=0;shape=mxgraph.veeam.2d.hard_drive;fontColor=#000000;" parent="2sx76Hz4cDRCvancHUNZ-2263" vertex="1">
                    <mxGeometry x="40" y="20" width="40" height="48" as="geometry"/>
                </mxCell>
                <mxCell id="2sx76Hz4cDRCvancHUNZ-2271" value="BIOS Boot" style="rounded=1;whiteSpace=wrap;html=1;" parent="2sx76Hz4cDRCvancHUNZ-2263" vertex="1">
                    <mxGeometry y="100" width="120" height="20" as="geometry"/>
                </mxCell>
                <mxCell id="2sx76Hz4cDRCvancHUNZ-2262" value="" style="group" parent="2sx76Hz4cDRCvancHUNZ-2293" vertex="1" connectable="0">
                    <mxGeometry x="40" y="110" width="1140" height="480" as="geometry"/>
                </mxCell>
                <mxCell id="2sx76Hz4cDRCvancHUNZ-2261" value="" style="rounded=0;whiteSpace=wrap;html=1;fillColor=#dae8fc;strokeColor=#6c8ebf;" parent="2sx76Hz4cDRCvancHUNZ-2262" vertex="1">
                    <mxGeometry width="120" height="480" as="geometry"/>
                </mxCell>
                <mxCell id="2sx76Hz4cDRCvancHUNZ-2258" value="&lt;div&gt;/dev/sda&lt;/div&gt;" style="shadow=0;dashed=0;html=1;strokeColor=none;fillColor=#4495D1;labelPosition=center;verticalLabelPosition=bottom;verticalAlign=top;align=center;outlineConnect=0;shape=mxgraph.veeam.2d.hard_drive;fontColor=#000000;" parent="2sx76Hz4cDRCvancHUNZ-2262" vertex="1">
                    <mxGeometry x="40" y="20" width="40" height="48" as="geometry"/>
                </mxCell>
                <mxCell id="2sx76Hz4cDRCvancHUNZ-2269" value="BIOS Boot" style="rounded=1;whiteSpace=wrap;html=1;" parent="2sx76Hz4cDRCvancHUNZ-2262" vertex="1">
                    <mxGeometry y="100" width="120" height="20" as="geometry"/>
                </mxCell>
                <mxCell id="2sx76Hz4cDRCvancHUNZ-2257" value="node-0001" style="shape=mxgraph.cisco.servers.fileserver;html=1;pointerEvents=1;dashed=0;fillColor=#036897;strokeColor=#ffffff;strokeWidth=2;verticalLabelPosition=bottom;verticalAlign=top;align=center;outlineConnect=0;" parent="2sx76Hz4cDRCvancHUNZ-2293" vertex="1">
                    <mxGeometry x="218.5" y="20" width="43" height="62" as="geometry"/>
                </mxCell>
                <mxCell id="2sx76Hz4cDRCvancHUNZ-2274" value="ZFS Root Pool /&amp;nbsp;&amp;nbsp;&amp;nbsp;&amp;nbsp;&amp;nbsp;&amp;nbsp;&amp;nbsp; " style="rounded=1;whiteSpace=wrap;html=1;fillColor=#EA6B66;" parent="2sx76Hz4cDRCvancHUNZ-2293" vertex="1">
                    <mxGeometry x="40" y="280" width="400" height="40" as="geometry"/>
                </mxCell>
                <mxCell id="2sx76Hz4cDRCvancHUNZ-2273" value="ZFS Boot Pool /boot" style="rounded=1;whiteSpace=wrap;html=1;fillColor=#EA6B66;" parent="2sx76Hz4cDRCvancHUNZ-2293" vertex="1">
                    <mxGeometry x="40" y="240" width="400" height="30" as="geometry"/>
                </mxCell>
                <mxCell id="2" value="ZFS Data Pool&lt;br&gt;/opt/containers/&lt;br&gt;/opt/apps/" style="rounded=1;whiteSpace=wrap;html=1;fillColor=#EA6B66;" parent="1" vertex="1">
                    <mxGeometry x="120" y="440" width="400" height="250" as="geometry"/>
                </mxCell>
            </root>
        </mxGraphModel>
    </diagram>
</mxfile>